{
  "accessors": [
    {
      "bufferView": 2,
      "componentType": 5126,
      "count": 192,
      "max": [
        0.08090800046920776,
        0.628678023815155,
        0.08090800046920776
      ],
      "min": [
        -0.08090800046920776,
        -0.14614799618721008,
        -0.08090800046920776
      ],
      "type": "VEC3"
    },
    {
      "bufferView": 2,
      "byteOffset": 2304,
      "componentType": 5126,
      "count": 192,
      "max": [
        0.9238766431808472,
        0.8864393830299377,
        0.9238766431808472
      ],
      "min": [
        -0.9238766431808472,
        -0.7023013234138489,
        -0.9238766431808472
      ],
      "type": "VEC3"
    },
    {
      "bufferView": 1,
      "componentType": 5126,
      "count": 192,
      "max": [
        1.0,
        1.0
      ],
      "min": [
        0.0,
        0.5
      ],
      "type": "VEC2"
    },
    {
      "bufferView": 0,
      "componentType": 5125,
      "count": 288,
      "type": "SCALAR"
    },
    {
      "bufferView": 2,
      "byteOffset": 4608,
      "componentType": 5126,
      "count": 104,
      "max": [
        0.07302399724721909,
        -0.14614799618721008,
        0.07302399724721909
      ],
      "min": [
        -0.07302399724721909,
        -0.20472100377082825,
        -0.07302399724721909
      ],
      "type": "VEC3"
    },
    {
      "bufferView": 2,
      "byteOffset": 5856,
      "componentType": 5126,
      "count": 104,
      "max": [
        0.8420178890228271,
        -0.4115087389945984,
        0.8420178890228271
      ],
      "min": [
        -0.8420178890228271,
        -1.0,
        -0.8420178890228271
      ],
      "type": "VEC3"
    },
    {
      "bufferView": 1,
      "byteOffset": 1536,
      "componentType": 5126,
      "count": 104,
      "max": [
        1.0,
        1.0
      ],
      "min": [
        0.0,
        0.009999999776482582
      ],
      "type": "VEC2"
    },
    {
      "bufferView": 0,
      "byteOffset": 1152,
      "componentType": 5125,
      "count": 162,
      "type": "SCALAR"
    },
    {
      "bufferView": 2,
      "byteOffset": 7104,
      "componentType": 5126,
      "count": 1005,
      "max": [
        0.07795300334692001,
        0.9184790253639221,
        0.07795300334692001
      ],
      "min": [
        -0.07795300334692001,
        0.13169600069522858,
        -0.07795300334692001
      ],
      "type": "VEC3"
    },
    {
      "bufferView": 2,
      "byteOffset": 19164,
      "componentType": 5126,
      "count": 1005,
      "max": [
        1.0,
        1.0,
        1.0
      ],
      "min": [
        -1.0,
        -1.0,
        -1.0
      ],
      "type": "VEC3"
    },
    {
      "bufferView": 1,
      "byteOffset": 2368,
      "componentType": 5126,
      "count": 1005,
      "max": [
        1.0,
        1.0
      ],
      "min": [
        0.0,
        0.0
      ],
      "type": "VEC2"
    },
    {
      "bufferView": 0,
      "byteOffset": 1800,
      "componentType": 5125,
      "count": 1803,
      "type": "SCALAR"
    },
    {
      "bufferView": 2,
      "byteOffset": 31224,
      "componentType": 5126,
      "count": 1533,
      "max": [
        0.21926599740982056,
        0.9316710233688354,
        0.21926599740982056
      ],
      "min": [
        -0.21926699578762054,
        -0.07537099719047546,
        -0.21926599740982056
      ],
      "type": "VEC3"
    },
    {
      "bufferView": 2,
      "byteOffset": 49620,
      "componentType": 5126,
      "count": 1533,
      "max": [
        1.0,
        1.0,
        1.0
      ],
      "min": [
        -1.0,
        -1.0,
        -1.0
      ],
      "type": "VEC3"
    },
    {
      "bufferView": 1,
      "byteOffset": 10408,
      "componentType": 5126,
      "count": 1533,
      "max": [
        1.0,
        1.0
      ],
      "min": [
        0.0,
        0.0
      ],
      "type": "VEC2"
    },
    {
      "bufferView": 0,
      "byteOffset": 9012,
      "componentType": 5125,
      "count": 2733,
      "type": "SCALAR"
    }
  ],
  "asset": {
    "extras": {
      "author": "GoldbergR (https://sketchfab.com/GoldbergR)",
      "license": "CC-BY-4.0 (http://creativecommons.org/licenses/by/4.0/)",
      "source": "https://sketchfab.com/3d-models/fgm-148-javelin-missile-low-poly-39b071dbbcbc4a5e9ca1646527b940ef",
      "title": "FGM-148 Javelin Missile (Low-Poly)"
    },
    "generator": "Sketchfab-16.62.0",
    "version": "2.0"
  },
  "bufferViews": [
    {
      "buffer": 0,
      "byteLength": 19944,
      "name": "floatBufferViews",
      "target": 34963
    },
    {
      "buffer": 0,
      "byteLength": 22672,
      "byteOffset": 19944,
      "byteStride": 8,
      "name": "floatBufferViews",
      "target": 34962
    },
    {
      "buffer": 0,
      "byteLength": 68016,
      "byteOffset": 42616,
      "byteStride": 12,
      "name": "floatBufferViews",
      "target": 34962
    }
  ],
  "buffers": [
    {
      "byteLength": 110632,
      "uri": "scene.bin"
    }
  ],
  "materials": [
    {
      "doubleSided": true,
      "name": "FGM-148_Javelin_Missile_1_Material_1",
      "pbrMetallicRoughness": {
        "baseColorFactor": [
          0.030035,
          0.030035,
          0.030035,
          1.0
        ],
        "metallicFactor": 0.0,
        "roughnessFactor": 0.8011823178082373
      }
    },
    {
      "doubleSided": true,
      "name": "FGM-148_Javelin_Missile_1_Material_2",
      "pbrMetallicRoughness": {
        "baseColorFactor": [
          0.43366,
          0.27682,
          0.073052,
          1.0
        ],
        "metallicFactor": 0.0,
        "roughnessFactor": 0.8011823178082373
      }
    },
    {
      "doubleSided": true,
      "name": "FGM-148_Javelin_Missile_1_Material_3",
      "pbrMetallicRoughness": {
        "baseColorFactor": [
          0.0,
          0.0,
          0.0,
          1.0
        ],
        "metallicFactor": 0.0,
        "roughnessFactor": 0.7188293374048255
      }
    },
    {
      "doubleSided": true,
      "name": "FGM-148_Javelin_Missile_1_Material_4",
      "pbrMetallicRoughness": {
        "baseColorFactor": [
          0.621131,
          0.621131,
          0.621131,
          1.0
        ],
        "metallicFactor": 0.0,
        "roughnessFactor": 0.8011823178082373
      }
    }
  ],
  "meshes": [
    {
      "name": "Object_0",
      "primitives": [
        {
          "attributes": {
            "NORMAL": 1,
            "POSITION": 0,
            "TEXCOORD_0": 2
          },
          "indices": 3,
          "material": 1,
          "mode": 4
        }
      ]
    },
    {
      "name": "Object_1",
      "primitives": [
        {
          "attributes": {
            "NORMAL": 5,
            "POSITION": 4,
            "TEXCOORD_0": 6
          },
          "indices": 7,
          "material": 2,
          "mode": 4
        }
      ]
    },
    {
      "name": "Object_2",
      "primitives": [
        {
          "attributes": {
            "NORMAL": 9,
            "POSITION": 8,
            "TEXCOORD_0": 10
          },
          "indices": 11,
          "material": 3,
          "mode": 4
        }
      ]
    },
    {
      "name": "Object_3",
      "primitives": [
        {
          "attributes": {
            "NORMAL": 13,
            "POSITION": 12,
            "TEXCOORD_0": 14
          },
          "indices": 15,
          "material": 0,
          "mode": 4
        }
      ]
    }
  ],
  "nodes": [
    {
      "children": [
        1
      ],
      "matrix": [
        1.0,
        0.0,
        0.0,
        0.0,
        0.0,
        2.220446049250313e-16,
        -1.0,
        0.0,
        0.0,
        1.0,
        2.220446049250313e-16,
        0.0,
        0.0,
        0.0,
        0.0,
        1.0
      ],
      "name": "Sketchfab_model"
    },
    {
      "children": [
        2,
        3,
        4,
        5
      ],
      "name": "FGM-148 Javelin Missile 1.obj.cleaner.materialmerger.gles"
    },
    {
      "mesh": 0,
      "name": "Object_2"
    },
    {
      "mesh": 1,
      "name": "Object_3"
    },
    {
      "mesh": 2,
      "name": "Object_4"
    },
    {
      "mesh": 3,
      "name": "Object_5"
    }
  ],
  "scene": 0,
  "scenes": [
    {
      "name": "Sketchfab_Scene",
      "nodes": [
        0
      ]
    }
  ]
}
